<?xml version="1.0" standalone="no"?>
<!DOCTYPE svg PUBLIC "-//W3C//DTD SVG 20010904//EN"
 "http://www.w3.org/TR/2001/REC-SVG-20010904/DTD/svg10.dtd">
<svg version="1.0" xmlns="http://www.w3.org/2000/svg"
 width="300.000000pt" height="300.000000pt" viewBox="0 0 300.000000 300.000000"
 preserveAspectRatio="xMidYMid meet">
<metadata>
Created by potrace 1.10, written by Peter Selinger 2001-2011
</metadata>
<g transform="translate(0.000000,300.000000) scale(0.100000,-0.100000)"
fill="#000000" stroke="none">
<path d="M690 2643 c-58 -21 -77 -88 -39 -137 12 -15 20 -28 18 -30 -2 -1 -35
-22 -72 -46 -188 -120 -238 -299 -237 -844 0 -361 30 -562 102 -700 l33 -62
-27 -69 c-52 -136 -47 -215 17 -255 77 -47 267 -89 545 -120 52 -5 114 -12
138 -15 23 -3 109 -8 190 -11 184 -8 346 4 687 51 144 20 329 75 386 116 62
44 76 132 38 233 -22 59 -103 144 -166 174 -25 12 -30 18 -22 29 6 7 15 13 20
13 14 0 153 116 185 153 52 62 110 215 128 344 3 21 10 67 15 103 15 104 12
366 -5 445 -28 132 -91 231 -184 287 -19 12 -37 23 -39 24 -1 2 8 18 22 36 56
73 54 120 -8 158 -44 27 -81 25 -111 -5 l-25 -25 -26 20 c-35 28 -84 26 -117
-5 -30 -28 -32 -46 -8 -99 l18 -39 -29 -29 c-26 -25 -29 -34 -24 -69 11 -81
60 -98 153 -55 l51 24 34 -26 c172 -129 184 -189 125 -607 -2 -11 -6 -47 -10
-80 -4 -33 -16 -90 -27 -126 -17 -59 -26 -74 -80 -124 -40 -36 -65 -53 -71
-47 -7 7 -3 17 11 31 28 28 36 68 23 105 -11 28 -9 33 28 69 65 65 65 138 0
172 l-30 16 27 37 c15 20 42 53 59 73 34 39 49 86 39 119 -16 50 -98 181 -134
213 -47 42 -121 67 -201 67 -55 0 -57 1 -87 44 -17 24 -53 57 -80 73 -44 26
-56 28 -148 28 -138 -1 -235 -32 -355 -116 l-55 -38 -112 33 c-158 48 -265 62
-334 46 -137 -32 -326 -176 -356 -272 -11 -33 -11 -32 -12 17 -3 180 52 323
150 394 l40 30 45 -35 c25 -19 55 -34 68 -34 69 0 125 115 76 157 -20 17 -20
18 9 48 44 45 45 83 5 120 -36 33 -69 32 -106 -5 l-30 -30 -30 25 c-16 14 -33
25 -38 25 -5 0 -14 2 -22 4 -7 3 -20 2 -28 -1z m234 -34 c34 -27 33 -50 -4
-92 -29 -34 -38 -57 -22 -57 5 0 14 -11 21 -23 10 -19 10 -30 -2 -60 -28 -65
-68 -68 -136 -11 l-33 27 -34 -18 c-47 -25 -112 -97 -135 -151 -33 -73 -49
-186 -49 -338 0 -272 37 -591 87 -751 21 -69 33 -87 77 -131 49 -48 53 -56 59
-110 7 -69 -3 -133 -27 -169 l-16 -25 -61 31 c-208 104 -277 347 -266 934 9
488 52 631 224 746 43 29 80 54 82 56 3 2 -5 24 -17 48 -26 55 -27 63 -5 87
25 28 67 22 108 -14 l36 -31 37 36 c20 21 40 37 43 37 3 0 18 -9 33 -21z
m1477 -112 c44 -30 47 -57 11 -109 -16 -24 -31 -48 -35 -54 -4 -6 18 -28 50
-50 69 -47 125 -117 151 -187 31 -81 46 -232 38 -378 -18 -366 -87 -560 -233
-661 l-46 -31 -35 37 c-24 27 -32 44 -28 59 3 12 6 36 6 52 0 24 9 36 46 60
54 36 90 80 110 137 28 78 76 462 72 573 -5 137 -37 191 -171 290 l-38 28 -37
-18 c-90 -43 -124 -41 -141 7 -15 44 -15 47 21 80 l31 29 -16 35 c-23 48 -21
80 5 98 30 21 39 20 82 -9 l38 -25 28 30 c34 36 47 37 91 7z m-506 -263 c17
-7 51 -34 75 -60 l43 -47 -41 -13 c-28 -8 -55 -9 -80 -3 -52 12 -141 11 -204
-2 -66 -14 -222 -85 -214 -98 3 -5 36 6 73 25 37 18 97 40 134 49 68 15 190
21 202 9 4 -4 -22 -20 -56 -36 -118 -56 -256 -148 -222 -148 3 0 54 29 114 65
133 80 210 112 305 127 132 20 233 -15 294 -104 47 -69 48 -73 16 -51 -37 26
-127 59 -185 68 -57 8 -159 -9 -224 -39 -27 -13 -79 -47 -115 -76 -36 -29 -79
-59 -96 -67 -29 -14 -33 -14 -71 10 -125 79 -326 76 -469 -8 -26 -15 -80 -58
-121 -96 -41 -38 -86 -71 -101 -74 -42 -9 -77 -29 -80 -47 -4 -21 65 -62 178
-105 97 -37 197 -43 285 -19 73 21 265 90 302 109 29 16 34 15 70 0 26 -12 66
-17 128 -17 81 -1 99 3 180 36 65 26 118 40 190 48 55 7 104 14 108 17 22 13
-20 -45 -62 -87 -88 -88 -264 -147 -506 -170 -193 -18 -352 -12 -731 26 -161
17 -162 17 -206 -5 -72 -34 -102 -126 -55 -168 33 -31 52 -38 188 -77 204 -58
294 -70 554 -70 132 0 270 5 325 13 136 18 365 59 396 72 33 12 44 0 44 -53 0
-44 -14 -60 -91 -98 -184 -93 -548 -160 -866 -160 -154 0 -240 12 -334 45 -80
28 -105 41 -241 133 l-97 65 -16 71 c-29 126 -56 357 -58 501 -2 161 9 198 81
277 53 58 177 142 193 133 7 -5 10 -4 6 2 -14 22 57 38 163 38 92 0 121 -5
238 -39 l133 -38 67 44 c105 70 164 92 292 112 38 6 131 -5 165 -20z m340
-266 c67 -23 139 -69 155 -98 18 -33 11 -81 -15 -116 -24 -32 -45 -41 -131
-59 l-31 -6 4 68 c4 58 1 75 -19 113 -36 66 -80 93 -146 88 -62 -5 -98 -28
-125 -82 -39 -74 -33 -158 15 -227 16 -24 16 -28 2 -33 -27 -10 -173 -7 -220
5 -40 10 -45 14 -38 33 4 12 9 49 11 84 4 56 8 64 32 76 15 8 59 40 99 71 85
67 141 93 219 104 72 9 112 5 188 -21z m-200 -78 c35 -38 -17 -94 -53 -58 -17
17 -15 38 5 60 20 23 26 23 48 -2z m-501 -25 c29 -9 74 -29 99 -45 43 -27 47
-33 47 -70 0 -22 -7 -57 -16 -79 -13 -33 -24 -43 -75 -65 -33 -14 -63 -26 -67
-26 -4 0 -6 24 -4 52 5 104 -73 198 -170 206 -61 4 -106 -19 -145 -76 -43 -65
-39 -176 9 -237 l19 -25 -40 0 c-44 0 -137 32 -238 82 -59 29 -79 48 -50 48
45 0 95 28 165 92 86 78 141 114 216 139 64 22 182 24 250 4z m614 -17 c17
-17 15 -73 -2 -88 -42 -34 -92 22 -68 75 13 27 49 34 70 13z m-850 -70 c22
-22 14 -67 -13 -80 -21 -9 -28 -8 -45 7 -24 22 -25 42 -3 67 19 21 44 23 61 6z
m721 -2 c16 -20 3 -46 -24 -46 -27 0 -36 17 -23 43 10 20 31 22 47 3z m-585
-21 c26 -27 29 -56 8 -84 -25 -34 -46 -37 -71 -12 -25 25 -27 58 -5 89 18 26
46 29 68 7z m730 -52 c-21 -15 -54 -17 -54 -3 0 6 9 10 20 10 11 0 20 4 20 10
0 5 7 7 16 3 15 -6 15 -8 -2 -20z m-106 -6 c4 -20 -25 -34 -40 -19 -15 15 -1
44 19 40 10 -2 19 -11 21 -21z m-734 -42 c2 -7 -2 -21 -9 -32 -11 -14 -18 -16
-31 -7 -25 15 -27 29 -9 47 17 17 40 13 49 -8z m154 -46 c1 -24 -6 -34 -31
-50 -46 -28 -67 -25 -67 9 1 22 9 31 43 48 56 28 54 28 55 -7z m-218 -38 c0
-6 11 -18 25 -27 31 -20 32 -34 2 -34 -18 0 -29 12 -49 50 -14 27 -23 52 -20
55 7 6 42 -30 42 -44z m88 14 c4 -20 -15 -36 -35 -28 -17 6 -17 40 0 46 19 8
32 2 35 -18z m979 -7 c32 -37 34 -45 20 -80 -33 -76 -80 -98 -322 -153 -210
-47 -325 -59 -565 -59 -204 0 -238 3 -362 27 -151 30 -158 31 -158 19 0 -9
183 -46 310 -63 119 -16 432 -5 595 20 72 12 195 37 274 57 138 35 145 36 158
18 18 -25 16 -51 -7 -84 -24 -33 -48 -42 -190 -69 -366 -69 -725 -77 -990 -21
-138 29 -296 80 -321 103 -29 27 -20 81 21 122 37 37 58 37 325 10 248 -26
621 -26 760 -1 159 28 279 72 349 127 34 26 66 48 72 48 6 1 20 -9 31 -21z
m-1666 -471 c-1 -12 -15 -9 -19 4 -3 6 1 10 8 8 6 -3 11 -8 11 -12z m92 -61
c78 -55 163 -98 252 -126 141 -45 490 -38 794 15 166 30 271 62 375 114 l79
40 33 -37 c35 -39 41 -52 24 -52 -14 0 -60 -46 -60 -59 0 -5 22 -23 48 -39 43
-27 136 -120 138 -139 0 -4 7 -21 14 -38 7 -16 13 -53 14 -82 1 -42 -4 -56
-24 -78 -63 -67 -218 -112 -570 -162 -156 -22 -639 -25 -795 -5 -358 47 -458
67 -545 110 -76 37 -89 66 -67 147 8 33 24 79 34 102 l18 43 35 -30 c36 -31
140 -90 158 -90 19 0 55 61 64 109 5 25 6 77 2 114 -6 62 -10 71 -38 89 -59
40 -92 98 -55 98 6 0 38 -20 72 -44z"/>
<path d="M1012 2079 c-29 -5 -72 -19 -95 -30 -72 -37 -180 -126 -171 -140 3
-5 35 16 71 46 159 131 290 144 517 50 14 -6 18 -4 14 6 -6 19 -150 66 -223
73 -33 2 -84 0 -113 -5z"/>
<path d="M1214 1925 c-84 -18 -144 -51 -249 -136 -99 -79 -153 -108 -202 -109
-21 0 -33 -5 -33 -14 0 -11 9 -12 44 -5 69 13 104 32 201 109 49 40 111 83
137 96 53 27 155 54 205 54 17 0 35 5 38 10 9 14 -66 11 -141 -5z"/>
</g>
</svg>
